<?xml version="1.0" encoding="utf-8"?>
<!-- Generator: Adobe Illustrator 21.0.2, SVG Export Plug-In . SVG Version: 6.00 Build 0)  -->
<svg version="1.1" id="Layer_1" xmlns="http://www.w3.org/2000/svg" xmlns:xlink="http://www.w3.org/1999/xlink" x="0px" y="0px"
	 viewBox="0 0 500 500" style="enable-background:new 0 0 500 500;" xml:space="preserve">
<style type="text/css">
	.st0{fill:#FA4932;}
</style>
<g>
	<path class="st0" d="M337.2,191.4H29.9c-13.1,0-23.7,7.5-23.7,16.7v217.7c0,9.3,10.6,16.8,23.7,16.8h307.3
		c13.1,0,23.7-7.5,23.7-16.8V208.1C360.9,198.9,350.2,191.4,337.2,191.4z M264.3,320.1l-62.4,62.4c-4.8,5-7.7,10.1-14.4,11.1
		c-0.3,0.1-0.7,0.2-1,0.2h-0.3c-0.4,0.1-0.8,0.1-1.4,0.1c-0.5,0-0.8,0-1.3-0.1h-0.4c-0.3,0-0.5-0.1-0.7-0.1
		c-6.8-0.9-9.7-6.1-14.6-11.2l-62.6-62.4c-15-17-15.3-17,0-34l22.8-28.3c9-11.4,8.7-11.4,17.1-11.4h79.4c8.4,0,8.1,0,17.1,11.4
		l22.7,28.3c1.4,1.6,2.6,3,3.7,4.3C279.4,303.2,277.9,304.6,264.3,320.1z"/>
	<path class="st0" d="M94.8,64.7c-32.6,0-59.1,26.5-59.1,59.1S62.2,183,94.8,183s59.1-26.5,59.1-59.1S127.5,64.7,94.8,64.7z"/>
	<path class="st0" d="M257.4,35.2c-40.7,0-73.8,33.1-73.8,73.9c0,40.7,33.1,73.8,73.8,73.8c40.8,0,73.9-33.1,73.9-73.8
		C331.3,68.3,298.2,35.2,257.4,35.2z"/>
	<path class="st0" d="M478.1,169.3c-15.8,0-102.5,82.7-102.5,93.6v108.3c0,10.9,88.7,93.6,102.5,93.6c13.8,0,15.8-14.8,15.8-14.8
		V184C493.8,184,493.8,169.3,478.1,169.3z"/>
</g>
</svg>
