<?xml version="1.0" standalone="no"?>
<!DOCTYPE svg PUBLIC "-//W3C//DTD SVG 20010904//EN"
 "http://www.w3.org/TR/2001/REC-SVG-20010904/DTD/svg10.dtd">
<svg version="1.0" xmlns="http://www.w3.org/2000/svg"
 width="700.000000pt" height="700.000000pt" viewBox="0 0 700.000000 700.000000"
 preserveAspectRatio="xMidYMid meet">
<metadata>
Created by potrace 1.11, written by Peter Selinger 2001-2013
</metadata>
<g transform="translate(0.000000,700.000000) scale(0.100000,-0.100000)"
fill="#000000" stroke="none">
<path d="M3487 6500 c-162 -19 -362 -96 -487 -189 -195 -146 -334 -352 -396
-586 -35 -129 -39 -332 -11 -464 100 -462 494 -795 967 -818 295 -14 568 94
781 309 340 344 392 887 122 1295 -87 133 -257 280 -408 356 -161 80 -382 117
-568 97z"/>
<path d="M1171 6080 c-110 -23 -247 -83 -332 -145 -65 -49 -177 -170 -218
-238 -40 -67 -74 -151 -98 -238 -27 -98 -24 -299 5 -404 77 -270 271 -480 529
-570 101 -35 202 -48 318 -42 382 21 700 304 766 682 15 86 6 278 -16 360 -74
271 -308 505 -580 580 -70 20 -307 29 -374 15z"/>
<path d="M6598 4592 c-42 -22 -110 -63 -150 -93 -360 -262 -1007 -882 -1149
-1102 l-39 -60 0 -778 0 -777 36 -53 c182 -271 1038 -1056 1309 -1201 66 -35
132 -40 183 -14 42 22 99 89 112 133 8 27 10 577 8 1944 l-3 1905 -28 42 c-32
48 -84 78 -153 87 -44 6 -57 3 -126 -33z"/>
<path d="M335 4313 c-95 -20 -184 -76 -220 -137 l-25 -43 0 -1565 c0 -1741 -6
-1603 70 -1672 52 -47 114 -74 199 -86 89 -13 4333 -13 4422 0 119 17 209 72
250 151 19 37 19 74 19 1607 l0 1569 -27 41 c-35 50 -66 75 -140 110 l-58 27
-2235 1 c-1229 1 -2244 0 -2255 -3z m2909 -777 c25 -11 96 -91 277 -316 315
-390 327 -405 335 -444 8 -46 -18 -94 -115 -207 -113 -134 -1040 -1056 -1074
-1068 -51 -19 -138 -13 -177 12 -57 36 -1102 1096 -1139 1154 -54 86 -41 144
57 253 27 30 136 163 242 295 210 261 255 313 285 325 11 5 303 9 648 9 517 1
634 -1 661 -13z"/>
</g>
</svg>
